<svg width="59" height="20" viewBox="0 0 59 20" fill="none" xmlns="http://www.w3.org/2000/svg">
<path d="M0 19.5676V0.216229H6.70257C7.53798 0.210455 8.36748 0.356707 9.15054 0.647843C9.89243 0.921623 10.5756 1.33382 11.1637 1.86252C11.7612 2.40573 12.2363 3.06987 12.5574 3.81082C12.8785 4.55177 13.0383 5.35258 13.0262 6.16003C13.0346 6.96289 12.873 7.75844 12.552 8.49438C12.231 9.23032 11.7578 9.88999 11.1637 10.43C10.5757 10.9589 9.89254 11.3711 9.15054 11.6447C8.36804 11.9359 7.53911 12.0824 6.70419 12.0771H3.05369V19.5635L0 19.5676ZM6.78355 9.16189C7.24674 9.17088 7.70681 9.08432 8.13507 8.90762C8.51251 8.74956 8.85304 8.5149 9.13515 8.2185C9.40158 7.93662 9.61231 7.60692 9.75626 7.24676C9.89699 6.9036 9.97039 6.53658 9.97247 6.1657C9.97004 5.39422 9.67012 4.6534 9.13515 4.09752C8.82929 3.78667 8.46334 3.54136 8.05961 3.37652C7.65587 3.21169 7.2228 3.13078 6.78678 3.13873H3.05369V9.16513L6.78355 9.16189Z" fill="#191919"/>
<path d="M15.4045 6.32434V19.5675H18.4047V6.32434H15.4045Z" fill="#191919"/>
<path d="M18.9109 2.02439C18.9153 2.28993 18.8662 2.55364 18.7665 2.79977C18.6667 3.0459 18.5183 3.26939 18.3303 3.45689C18.1479 3.64907 17.9274 3.80116 17.683 3.9035C17.4386 4.00583 17.1756 4.05615 16.9107 4.05127V-6.73094e-05C17.1756 -0.0047515 17.4386 0.0456654 17.6829 0.147985C17.9273 0.250305 18.1477 0.402295 18.3303 0.594313C18.5179 0.78161 18.666 1.00472 18.7658 1.25039C18.8655 1.49606 18.9149 1.75927 18.9109 2.02439Z" fill="#35AF39"/>
<path d="M16.9082 -3.36878e-05V4.05374C16.6399 4.05993 16.3732 4.0103 16.1251 3.90798C15.877 3.80566 15.6528 3.65289 15.4668 3.45936C15.2779 3.27189 15.1288 3.04811 15.0286 2.80151C14.9284 2.5549 14.8791 2.29057 14.8838 2.02442C14.88 1.75912 14.9296 1.49576 15.0298 1.25006C15.13 1.00436 15.2786 0.781357 15.4668 0.594346C15.653 0.401131 15.8772 0.248571 16.1253 0.146275C16.3734 0.0439784 16.64 -0.00583703 16.9082 -3.36878e-05Z" fill="#00BAFC"/>
<path d="M24.9996 12.8374L20.4316 6.32434H23.9185L26.7827 10.5133H26.8637L29.536 6.32434H33.1574L28.5359 12.8374L33.2383 19.5675H29.6753L26.8103 15.2433H26.7293L23.8886 19.5675H20.3506L24.9996 12.8374Z" fill="#191919"/>
<path d="M46.837 16.4053C46.267 17.4441 45.4495 18.3261 44.4571 18.9732C43.4313 19.6588 42.1705 20.0016 40.6746 20.0016C39.7342 20.0115 38.8015 19.8322 37.9318 19.4744C37.1138 19.1368 36.3733 18.6355 35.7559 18.0014C35.1359 17.3602 34.649 16.6025 34.3234 15.7721C33.9729 14.8722 33.7986 13.9133 33.81 12.9476C33.8047 12.0202 33.9694 11.0996 34.2959 10.2316C34.6033 9.40332 35.0664 8.64162 35.6604 7.98766C36.2804 7.31504 37.0354 6.78085 37.876 6.41999C38.7166 6.05914 39.6238 5.87976 40.5385 5.89356C41.5642 5.89356 42.4788 6.0647 43.2821 6.40697C44.0578 6.7314 44.754 7.22012 45.3227 7.83947C45.8983 8.48219 46.3353 9.23669 46.6062 10.0558C46.9111 10.9693 47.0619 11.9271 47.0524 12.8901V13.133C47.0351 13.2129 47.0259 13.2943 47.0249 13.376C47.0072 13.4467 46.9983 13.5193 46.9981 13.5922H36.8103C36.8481 14.1675 37.0044 14.7288 37.2694 15.2409C37.5017 15.6851 37.8183 16.0798 38.2015 16.4029C38.5639 16.7056 38.9816 16.935 39.4315 17.0783C39.8589 17.2191 40.3056 17.2921 40.7555 17.2945C41.6193 17.2945 42.3311 17.0875 42.8909 16.6734C43.449 16.2587 43.9173 15.7353 44.2676 15.1348L46.837 16.4053ZM44.0522 11.2972C44.0045 10.986 43.9183 10.6818 43.7955 10.3919C43.6524 10.0473 43.4411 9.73525 43.1744 9.47442C42.8604 9.17218 42.4941 8.92961 42.0933 8.75857C41.6522 8.56045 41.1164 8.46138 40.4859 8.46138C39.6221 8.46138 38.8787 8.71808 38.2557 9.23149C37.6328 9.74489 37.2138 10.4335 36.999 11.2972H44.0522Z" fill="#191919"/>
<path d="M49.323 6.3243H52.1572V8.32446H52.3192C52.4896 7.97302 52.7142 7.65056 52.9848 7.36892C53.263 7.0715 53.5817 6.81471 53.9315 6.6061C54.2826 6.39779 54.6541 6.22577 55.0401 6.0927C55.4001 5.96375 55.7792 5.89587 56.1616 5.89188C56.5346 5.88489 56.9069 5.92598 57.2694 6.01415C57.5619 6.09058 57.8435 6.20377 58.1075 6.35102L57.2427 9.0808C57.0308 8.98683 56.8084 8.91885 56.5803 8.87835C56.2903 8.82959 55.9965 8.80683 55.7025 8.81033C55.2391 8.80494 54.7808 8.90752 54.3639 9.10995C53.9584 9.30928 53.5958 9.58602 53.2966 9.92459C52.9822 10.2825 52.7393 10.6973 52.5807 11.1466C52.408 11.6256 52.3211 12.1314 52.324 12.6406V19.5675H49.3279L49.323 6.3243Z" fill="#191919"/>
</svg>
